<svg width="100" height="50" viewBox="0 0 100 50" fill="none" xmlns="http://www.w3.org/2000/svg">
<path d="M0 10C0 4.47715 4.47715 0 10 0H90C95.5228 0 100 4.47715 100 10V40C100 45.5228 95.5228 50 90 50H10C4.47716 50 0 45.5228 0 40V10Z" fill="white"/>
<path d="M15.6239 22.348C15.5999 23.14 15.4799 23.788 15.2639 24.292C15.0719 24.796 14.9759 25.72 14.9759 27.064C14.9759 28.408 15.0719 29.656 15.2639 30.808C15.2639 31.264 14.9999 31.72 14.4719 32.176C14.3039 32.32 14.2199 32.44 14.2199 32.536C14.2199 32.608 14.3039 32.74 14.4719 32.932C14.6399 33.1 14.8799 33.184 15.1919 33.184C15.5039 33.184 15.8999 33.064 16.3799 32.824C16.8839 32.56 17.2679 32.308 17.5319 32.068L17.9279 31.708C18.4079 31.228 18.6479 30.424 18.6479 29.296L18.5039 27.748C18.5039 27.676 18.6719 27.544 19.0079 27.352C19.3679 27.16 19.5479 26.956 19.5479 26.74C19.5479 26.356 19.2959 25.984 18.7919 25.624C18.5039 25.528 18.2879 25.276 18.1439 24.868C18.1439 24.82 18.2279 24.568 18.3959 24.112C18.8999 22.744 19.1519 21.88 19.1519 21.52C19.1519 21.136 19.1279 20.872 19.0799 20.728C18.8159 20.272 18.6359 19.276 18.5399 17.74C18.4439 16.204 18.2879 15.244 18.0719 14.86C17.8559 14.452 17.5559 14.104 17.1719 13.816C16.8119 13.528 16.4999 13.336 16.2359 13.24L15.8399 13.096C15.6719 13.096 15.4919 13.156 15.2999 13.276C15.1079 13.396 15.0239 13.528 15.0479 13.672C15.0719 13.816 15.0839 14.356 15.0839 15.292C15.0839 16.228 15.0239 17.152 14.9039 18.064V18.1C14.9039 18.22 15.0359 18.436 15.2999 18.748C15.5879 19.036 15.7319 19.276 15.7319 19.468C15.7319 19.66 15.5519 19.96 15.1919 20.368C14.8559 20.752 14.6879 21.028 14.6879 21.196C14.6879 21.364 14.8439 21.58 15.1559 21.844C15.4679 22.084 15.6239 22.252 15.6239 22.348ZM26.0279 24.04L26.1359 25.624C26.1359 25.816 26.0999 25.924 26.0279 25.948C25.6679 26.26 25.4879 26.884 25.4879 27.82C25.2719 29.356 25.0679 30.172 24.8759 30.268C23.8919 30.436 23.3999 30.808 23.3999 31.384C23.3999 31.624 23.5079 31.852 23.7239 32.068C23.9639 32.26 24.0839 32.404 24.0839 32.5C24.0839 32.596 23.7599 33.016 23.1119 33.76C22.4879 34.48 21.8399 35.068 21.1679 35.524C20.4959 35.98 19.6679 36.46 18.6839 36.964C17.6999 37.444 16.9679 37.684 16.4879 37.684C16.4399 37.684 16.3559 37.612 16.2359 37.468C16.1399 37.324 16.0199 37.252 15.8759 37.252C15.8759 37.252 14.7239 37.348 12.4199 37.54C11.1719 37.54 9.87594 37.372 8.53194 37.036L7.81194 36.856C7.69194 36.808 7.57194 36.688 7.45194 36.496C7.33194 36.304 7.27194 36.16 7.27194 36.064L7.30794 35.992C7.71594 35.368 7.91994 34.096 7.91994 32.176V32.104C7.91994 32.056 8.09994 31.936 8.45994 31.744C8.84394 31.528 9.03594 31.252 9.03594 30.916C9.03594 30.58 8.81994 30.244 8.38794 29.908C7.95594 29.572 7.73994 29.368 7.73994 29.296V29.26C7.97994 28.252 8.09994 25.876 8.09994 22.132V21.124C8.09994 20.476 7.97994 19.888 7.73994 19.36V19.288L8.09994 18.352C8.14794 18.208 8.17194 17.932 8.17194 17.524L8.02794 14.464C7.90794 13.72 7.65594 13.06 7.27194 12.484C6.88794 11.884 6.69594 11.572 6.69594 11.548C6.69594 11.5 6.71994 11.416 6.76794 11.296C6.93594 10.888 7.15194 10.612 7.41594 10.468C7.67994 10.3 8.68794 10.012 10.4399 9.604C12.2159 9.196 13.4039 8.992 14.0039 8.992C14.6279 8.992 15.7439 9.136 17.3519 9.424C18.9839 9.712 20.0879 10 20.6639 10.288C21.2399 10.576 22.0799 11.26 23.1839 12.34C24.2879 13.396 24.8399 14.056 24.8399 14.32C24.8399 14.392 24.7319 14.62 24.5159 15.004C24.2999 15.364 24.1919 15.628 24.1919 15.796C24.1919 15.964 24.4199 16.192 24.8759 16.48C25.3319 16.744 25.5839 16.996 25.6319 17.236C25.8719 18.556 26.0159 19.552 26.0639 20.224L26.0999 21.088C26.0999 21.52 26.0879 22.12 26.0639 22.888L26.0279 24.04ZM38.1394 37.36C38.0674 37.36 37.9474 37.216 37.7794 36.928C37.6114 36.616 37.3954 36.46 37.1314 36.46C36.8914 36.46 36.6154 36.652 36.3034 37.036C36.0154 37.42 35.7874 37.612 35.6194 37.612C34.0114 37.612 32.5714 37.48 31.2994 37.216C30.0274 36.976 29.1634 36.724 28.7074 36.46L27.9874 36.064C27.8434 35.92 27.6754 35.176 27.4834 33.832C27.3154 32.464 27.2314 31.228 27.2314 30.124C27.2314 29.956 27.7114 29.56 28.6714 28.936L29.1394 28.612C29.3794 28.444 29.9794 28.288 30.9394 28.144C30.9634 28.144 30.9754 28.24 30.9754 28.432L30.9394 29.224L31.8754 31.528C31.9954 31.6 32.4154 31.768 33.1354 32.032C33.8794 32.272 34.4314 32.392 34.7914 32.392C35.4394 32.392 36.0874 32.008 36.7354 31.24C37.4074 30.448 37.7434 29.896 37.7434 29.584C37.7434 29.032 37.4194 28.312 36.7714 27.424L36.4474 26.956C34.6954 25.852 33.6394 25.3 33.2794 25.3C32.8474 25.42 32.5594 25.48 32.4154 25.48C32.2954 25.48 32.1154 25.336 31.8754 25.048C31.6594 24.76 31.5514 24.568 31.5514 24.472L31.8034 23.392C31.8034 23.2 31.5514 23.032 31.0474 22.888L30.0394 23.068C29.7754 23.068 29.1754 22.468 28.2394 21.268C27.3274 20.068 26.8714 19.348 26.8714 19.108C26.8714 18.868 27.0274 18.268 27.3394 17.308C27.6754 16.348 28.1794 15.208 28.8514 13.888C29.5234 12.544 30.2314 11.5 30.9754 10.756C31.4794 10.42 32.3434 10.12 33.5674 9.856C34.8154 9.592 36.1354 9.46 37.5274 9.46C37.9354 10.108 38.4394 10.432 39.0394 10.432C39.5674 10.192 39.8314 9.772 39.8314 9.172C39.8314 9.1 40.2274 9.064 41.0194 9.064C42.6034 9.064 43.3954 9.268 43.3954 9.676C43.4194 10.084 43.4314 10.636 43.4314 11.332C43.4314 12.028 43.4074 12.568 43.3594 12.952C43.6234 14.104 43.7554 14.788 43.7554 15.004V15.04C43.6114 15.328 43.2154 15.688 42.5674 16.12C41.9194 16.528 41.5114 16.732 41.3434 16.732C41.1994 16.732 41.1274 16.696 41.1274 16.624C41.1274 16.192 40.6594 15.616 39.7234 14.896C38.8114 14.152 37.9714 13.78 37.2034 13.78C36.7474 13.78 36.1474 14.176 35.4034 14.968C34.6594 15.736 34.2874 16.384 34.2874 16.912C34.4074 17.512 34.6594 17.812 35.0434 17.812C35.2594 17.812 35.5114 17.68 35.7994 17.416H35.8354C36.0514 17.416 36.7594 17.836 37.9594 18.676C39.1834 19.492 39.8314 20.008 39.9034 20.224C40.1914 20.176 40.4314 20.152 40.6234 20.152C40.8394 20.152 40.9954 20.176 41.0914 20.224C41.6674 20.68 42.2674 21.304 42.8914 22.096C43.5154 22.864 43.8754 23.368 43.9714 23.608C44.5234 24.88 44.7994 26.932 44.7994 29.764C44.7994 30.628 43.8754 32.116 42.0274 34.228C40.2034 36.316 38.9074 37.36 38.1394 37.36ZM53.5364 29.692C53.4884 30.148 53.4644 30.94 53.4644 32.068C53.4644 33.196 53.7884 34.408 54.4364 35.704C54.4364 35.824 54.2924 35.98 54.0044 36.172C53.7404 36.364 53.5484 36.508 53.4284 36.604C53.3084 36.676 53.1404 36.796 52.9244 36.964C52.7324 37.132 52.5764 37.264 52.4564 37.36C52.1204 37.624 51.8804 37.756 51.7364 37.756C51.0404 37.756 49.8884 37.624 48.2804 37.36C46.6964 37.096 45.9044 36.832 45.9044 36.568C45.9044 36.424 45.9644 35.824 46.0844 34.768C46.2044 33.712 46.2764 33.124 46.3004 33.004L46.5524 32.5C46.7684 30.124 46.8764 28.564 46.8764 27.82C46.8764 27.076 46.8404 26.152 46.7684 25.048C46.7204 23.944 46.6604 23.08 46.5884 22.456C46.5404 21.808 46.5164 21.472 46.5164 21.448C46.5164 21.4 46.6124 21.316 46.8044 21.196C47.3324 20.836 47.5964 20.452 47.5964 20.044C47.5964 19.636 47.3924 19.336 46.9844 19.144C46.6004 18.928 46.4084 18.784 46.4084 18.712C46.4084 18.472 46.4684 17.92 46.5884 17.056C46.7084 16.168 46.7684 15.484 46.7684 15.004C46.7684 14.524 46.6124 13.852 46.3004 12.988C46.0124 12.124 45.8684 11.632 45.8684 11.512C45.8684 11.32 46.4204 10.888 47.5244 10.216C48.6524 9.52 49.4444 9.172 49.9004 9.172C50.3804 9.172 51.1604 9.328 52.2404 9.64C53.3204 9.928 53.8604 10.252 53.8604 10.612C53.8604 10.876 53.7284 11.536 53.4644 12.592C53.2004 13.648 53.0684 14.248 53.0684 14.392C53.0684 14.536 53.1404 14.668 53.2844 14.788C53.4524 14.884 53.5364 15.004 53.5364 15.148C53.2724 17.884 53.1404 19.732 53.1404 20.692C53.1404 21.628 53.1524 22.18 53.1764 22.348C53.2004 22.492 53.2724 22.66 53.3924 22.852C53.5124 23.044 53.5724 23.236 53.5724 23.428C53.5724 23.452 53.3804 23.62 52.9964 23.932C52.6364 24.244 52.4564 24.52 52.4564 24.76C52.4564 25 52.6604 25.288 53.0684 25.624C53.4764 25.96 53.6804 26.308 53.6804 26.668C53.6084 27.148 53.5604 27.412 53.5364 27.46C53.5364 27.484 53.3564 27.628 52.9964 27.892C52.6364 28.132 52.4564 28.3 52.4564 28.396V28.648C52.4564 28.96 52.6964 29.2 53.1764 29.368C53.4164 29.464 53.5364 29.572 53.5364 29.692ZM69.316 9.928L73.672 9.64C73.864 9.64 73.972 9.652 73.996 9.676C74.14 9.82 74.392 10.72 74.752 12.376C75.136 14.008 75.328 15.292 75.328 16.228C75.328 16.42 74.968 16.768 74.248 17.272C73.552 17.752 72.976 17.992 72.52 17.992C72.472 17.992 72.388 17.8 72.268 17.416C71.86 16.096 71.32 15.1 70.648 14.428C69.784 14.116 69.148 13.96 68.74 13.96C68.332 13.96 68.08 13.984 67.984 14.032C67.912 14.056 67.792 14.14 67.624 14.284C67.48 14.428 67.408 14.62 67.408 14.86C68.512 15.364 69.064 15.7 69.064 15.868C68.944 17.428 68.884 18.964 68.884 20.476C68.308 20.956 68.02 21.268 68.02 21.412C68.02 21.724 68.116 21.976 68.308 22.168C68.5 22.36 68.692 22.492 68.884 22.564C69.076 22.636 69.172 22.684 69.172 22.708C69.028 25.3 68.956 27.472 68.956 29.224C68.956 30.952 69.004 32.104 69.1 32.68C69.652 34.048 69.928 35.032 69.928 35.632C69.928 35.824 69.64 36.052 69.064 36.316C68.512 36.58 68.056 36.76 67.696 36.856C67.096 37 66.568 37.3 66.112 37.756C64.816 37.756 63.736 37.696 62.872 37.576C62.032 37.456 61.504 37.336 61.288 37.216L61 37.036L61.612 34.84C61.66 34.768 61.684 34.396 61.684 33.724L61.648 30.988C61.648 30.604 61.66 30.412 61.684 30.412C61.972 30.412 62.26 30.1 62.548 29.476C62.548 29.356 62.332 29.08 61.9 28.648C61.492 28.216 61.288 27.952 61.288 27.856L61.828 26.812C61.876 26.62 61.9 26.356 61.9 26.02L61.792 22.672C61.792 22.24 61.828 21.988 61.9 21.916C61.972 21.844 62.008 21.76 62.008 21.664C62.008 21.544 61.876 21.352 61.612 21.088C61.348 20.8 61.216 20.548 61.216 20.332L61.792 19.036C61.888 18.748 61.936 17.824 61.936 16.264C61.936 14.704 61.912 13.924 61.864 13.924C61.192 13.924 60.556 14.308 59.956 15.076C59.356 15.82 58.924 16.576 58.66 17.344L58.264 18.496C57.784 18.496 57.292 18.364 56.788 18.1C56.284 17.836 55.9 17.572 55.636 17.308C55.372 17.02 55.24 16.816 55.24 16.696C55.24 16.552 55.48 15.352 55.96 13.096C56.464 10.816 56.776 9.664 56.896 9.64C58.024 9.76 58.744 9.868 59.056 9.964C62.056 9.676 63.76 9.532 64.168 9.532L65.752 9.712C66.712 9.328 67.252 9.136 67.372 9.136C67.756 9.304 68.044 9.484 68.236 9.676C68.428 9.844 68.788 9.928 69.316 9.928ZM83.9508 20.296L89.8188 19.972C90.5628 19.972 90.9348 20.08 90.9348 20.296C90.9348 20.944 90.6588 21.964 90.1068 23.356C89.5548 24.724 89.1228 25.408 88.8108 25.408L88.1988 25.048C87.7908 24.832 87.3588 24.724 86.9028 24.724C85.1748 24.724 84.2388 24.796 84.0948 24.94C83.9508 25.084 83.8788 26.176 83.8788 28.216C83.8788 30.232 84.0708 31.432 84.4548 31.816C84.8388 32.2 85.6308 32.392 86.8308 32.392C88.0308 32.392 88.7868 32.236 89.0988 31.924C89.4348 31.588 89.7708 31.144 90.1068 30.592C90.4668 30.04 90.7548 29.572 90.9708 29.188C91.1868 28.78 91.3068 28.576 91.3308 28.576C91.5468 28.576 91.9548 28.876 92.5548 29.476C93.1788 30.076 93.4908 30.52 93.4908 30.808C93.4908 31.072 93.2268 32.056 92.6988 33.76C92.1948 35.44 91.8348 36.388 91.6188 36.604C91.5948 36.652 91.4988 36.676 91.3308 36.676L89.2788 36.46C88.4148 36.46 87.6948 36.496 87.1188 36.568C86.5428 36.616 86.2068 36.64 86.1108 36.64C86.0388 36.64 85.8468 36.568 85.5348 36.424C85.2468 36.28 85.0308 36.208 84.8868 36.208C84.7668 36.208 84.6588 36.244 84.5628 36.316C84.4908 36.388 84.4188 36.484 84.3468 36.604C84.1788 36.892 83.9628 37.036 83.6988 37.036L82.1868 36.856C81.4908 36.856 80.7348 36.94 79.9188 37.108C79.1268 37.276 78.5508 37.36 78.1908 37.36C77.8308 37.36 77.3868 37.288 76.8588 37.144C76.3548 37.024 76.1028 36.88 76.1028 36.712C76.1028 36.664 76.1628 36.424 76.2828 35.992C76.6668 34.648 76.8588 33.712 76.8588 33.184C76.8588 32.632 76.8348 32.272 76.7868 32.104C76.7868 32.08 76.9308 31.972 77.2188 31.78C77.5308 31.564 77.6868 31.288 77.6868 30.952C77.6868 30.616 77.4708 30.316 77.0388 30.052C76.6068 29.764 76.3908 29.608 76.3908 29.584L76.7148 28.072C76.9308 27.064 77.0388 26.38 77.0388 26.02C77.0388 25.66 77.0028 25.384 76.9308 25.192C76.8828 25 76.8588 24.892 76.8588 24.868V24.796C77.0508 23.884 77.1468 22.876 77.1468 21.772C77.1468 20.644 77.0988 19.6 77.0028 18.64C76.9308 17.656 76.8948 17.152 76.8948 17.128C76.8948 17.104 77.0148 16.996 77.2548 16.804C77.4948 16.612 77.6148 16.396 77.6148 16.156C77.6148 15.892 77.4948 15.532 77.2548 15.076C76.5828 13.708 76.2468 12.124 76.2468 10.324C76.2468 10.06 77.0748 9.832 78.7308 9.64C80.3868 9.424 81.9708 9.316 83.4828 9.316C83.7948 9.316 84.0588 9.448 84.2748 9.712C84.4908 9.976 84.6708 10.108 84.8148 10.108C84.9828 10.108 85.6908 9.988 86.9388 9.748C88.2108 9.508 89.2068 9.388 89.9268 9.388C91.6788 9.388 92.5548 9.592 92.5548 10C92.5548 10.696 92.4108 11.632 92.1228 12.808C91.8348 13.96 91.6188 14.608 91.4748 14.752C91.2348 15.04 90.6348 15.184 89.6748 15.184C89.5788 15.184 89.4468 15.016 89.2788 14.68C89.1348 14.32 88.8468 13.972 88.4148 13.636C88.0068 13.276 87.5508 13.096 87.0468 13.096C86.5428 13.096 86.0028 13.204 85.4268 13.42C84.8508 13.612 84.4908 13.78 84.3468 13.924C84.2028 14.068 84.1308 14.68 84.1308 15.76C84.1308 16.816 84.1908 17.608 84.3108 18.136V18.244C84.3108 18.412 84.0708 18.568 83.5908 18.712C83.1108 18.856 82.8708 19.324 82.8708 20.116C82.8708 20.236 83.2308 20.296 83.9508 20.296Z" fill="#07939E"/>
</svg>
